<svg xmlns="http://www.w3.org/2000/svg" width="44" height="38" fill="none"><path fill="#FFF" d="M31.375 9.844A9.375 9.375 0 1 0 22 19.219a9.385 9.385 0 0 0 9.375-9.375ZM22 14.53a4.688 4.688 0 1 1 0-9.375 4.688 4.688 0 0 1 0 9.375Zm11.719 4.688a9.375 9.375 0 1 0 9.375 9.375 9.385 9.385 0 0 0-9.375-9.375Zm0 14.062a4.688 4.688 0 1 1 0-9.376 4.688 4.688 0 0 1 0 9.376ZM10.28 19.22a9.375 9.375 0 1 0 9.375 9.375 9.385 9.385 0 0 0-9.375-9.375Zm0 14.062a4.688 4.688 0 1 1 0-9.376 4.688 4.688 0 0 1 0 9.376Z"/></svg>