<svg xmlns="http://www.w3.org/2000/svg" width="40" height="34" fill="none"><path fill="#FFF" d="M38.992 26.129a2.344 2.344 0 0 1-.308 3.299c-3.55 2.945-6.758 3.978-9.67 3.978-3.86 0-7.2-1.814-10.133-3.406-4.895-2.66-8.762-4.76-14.572.059a2.344 2.344 0 1 1-2.993-3.61c8.252-6.836 14.649-3.365 19.803-.57 4.895 2.658 8.762 4.76 14.572-.059a2.344 2.344 0 0 1 3.301.309Zm-3.3-11.248c-5.811 4.818-9.678 2.717-14.573.059-5.146-2.793-11.55-6.272-19.803.57a2.344 2.344 0 1 0 2.993 3.61c5.81-4.82 9.677-2.72 14.572-.06 2.93 1.592 6.273 3.407 10.133 3.407 2.912 0 6.12-1.033 9.67-3.977a2.344 2.344 0 0 0-2.993-3.61ZM4.308 8.18c5.81-4.819 9.677-2.72 14.572-.059 2.93 1.592 6.273 3.406 10.133 3.406 2.912 0 6.12-1.033 9.67-3.976a2.344 2.344 0 0 0-2.993-3.61C29.881 8.76 26.014 6.661 21.12 4c-5.146-2.793-11.55-6.271-19.803.572A2.344 2.344 0 1 0 4.31 8.18Z"/></svg>