<svg xmlns="http://www.w3.org/2000/svg" width="36" height="47" fill="none"><path fill="#FFF" d="M19.344 1.205a2.344 2.344 0 0 0-2.688 0 50.587 50.587 0 0 0-8.238 7.617C2.932 15.123.031 21.801.031 28.125a17.969 17.969 0 0 0 35.938 0c0-15.11-15.946-26.445-16.625-26.92ZM18 41.406A13.295 13.295 0 0 1 4.719 28.125c0-6.506 3.906-12.377 7.168-16.154A48.706 48.706 0 0 1 18 6.076a48.706 48.706 0 0 1 6.113 5.895c3.262 3.777 7.168 9.648 7.168 16.154A13.295 13.295 0 0 1 18 41.406Zm9.691-10.234a10.155 10.155 0 0 1-6.64 6.64 2.344 2.344 0 1 1-1.406-4.473 5.467 5.467 0 0 0 3.578-3.577 2.344 2.344 0 1 1 4.472 1.406l-.004.004Z"/></svg>